<svg width="67" height="40" viewBox="0 0 67 40" fill="none" xmlns="http://www.w3.org/2000/svg">
<g clip-path="url(#clip0)">
<path d="M20.5139 14.0506C20.0341 14.6206 19.2664 15.0702 18.4987 15.0059C18.4027 14.2353 18.7786 13.4164 19.2184 12.9106C19.6982 12.3246 20.5379 11.9071 21.2176 11.875C21.2976 12.6778 20.9857 13.4646 20.5139 14.0506ZM21.2097 15.1585C20.0981 15.0943 19.1464 15.7927 18.6186 15.7927C18.0828 15.7927 17.2751 15.1906 16.3955 15.2066C15.2519 15.2227 14.1883 15.873 13.6045 16.9086C12.405 18.9798 13.2927 22.0466 14.4522 23.7325C15.02 24.5674 15.6997 25.4826 16.5954 25.4505C17.4431 25.4184 17.779 24.8965 18.8026 24.8965C19.8342 24.8965 20.1301 25.4505 21.0257 25.4344C21.9534 25.4184 22.5371 24.5995 23.1049 23.7646C23.7527 22.8173 24.0166 21.894 24.0326 21.8459C24.0166 21.8298 22.2413 21.1474 22.2253 19.0922C22.2093 17.3742 23.6247 16.5554 23.6887 16.5072C22.889 15.319 21.6415 15.1906 21.2097 15.1585ZM27.6312 12.8303V25.3461H29.5665V21.0671H32.2455C34.6925 21.0671 36.4119 19.3812 36.4119 16.9407C36.4119 14.5002 34.7245 12.8303 32.3094 12.8303H27.6312ZM29.5665 14.4681H31.7976C33.477 14.4681 34.4366 15.3672 34.4366 16.9487C34.4366 18.5303 33.477 19.4374 31.7896 19.4374H29.5665V14.4681ZM39.9465 25.4424C41.1621 25.4424 42.2896 24.8243 42.8014 23.8449H42.8414V25.3461H44.6328V19.1163C44.6328 17.31 43.1933 16.1459 40.9781 16.1459C38.9229 16.1459 37.4035 17.3261 37.3475 18.9477H39.0909C39.2348 18.177 39.9465 17.6713 40.9222 17.6713C42.1057 17.6713 42.7695 18.2252 42.7695 19.2448V19.9352L40.3544 20.0797C38.1072 20.2162 36.8917 21.1394 36.8917 22.745C36.8917 24.3667 38.1472 25.4424 39.9465 25.4424ZM40.4663 23.9572C39.4347 23.9572 38.779 23.4595 38.779 22.6968C38.779 21.9101 39.4107 21.4525 40.6183 21.3802L42.7695 21.2438V21.9502C42.7695 23.1223 41.7778 23.9572 40.4663 23.9572ZM47.0238 28.75C48.9111 28.75 49.7988 28.0275 50.5745 25.8358L53.9732 16.2664H52.006L49.7268 23.6602H49.6868L47.4077 16.2664H45.3845L48.6632 25.3782L48.4873 25.9321C48.1914 26.8714 47.7116 27.2327 46.8559 27.2327C46.704 27.2327 46.4081 27.2166 46.2881 27.2006V28.7018C46.4001 28.7339 46.8799 28.75 47.0238 28.75Z" fill="white"/>
</g>
<defs>
<clipPath id="clip0">
<rect width="40.9444" height="16.875" fill="white" transform="translate(13.0278 11.875)"/>
</clipPath>
</defs>
</svg>
