<svg width="22" height="22" viewBox="0 0 22 22" fill="none" xmlns="http://www.w3.org/2000/svg">
<path d="M11 22C4.9247 22 0 17.0753 0 11C0 4.9247 4.9247 0 11 0C17.0753 0 22 4.9247 22 11C22 17.0753 17.0753 22 11 22ZM11 19.8C13.3339 19.8 15.5722 18.8729 17.2225 17.2225C18.8729 15.5722 19.8 13.3339 19.8 11C19.8 8.66609 18.8729 6.42778 17.2225 4.77746C15.5722 3.12714 13.3339 2.2 11 2.2C8.66609 2.2 6.42778 3.12714 4.77746 4.77746C3.12714 6.42778 2.2 8.66609 2.2 11C2.2 13.3339 3.12714 15.5722 4.77746 17.2225C6.42778 18.8729 8.66609 19.8 11 19.8ZM9.9 14.3H12.1V16.5H9.9V14.3ZM12.1 12.4905V13.2H9.9V11.55C9.9 11.2583 10.0159 10.9785 10.2222 10.7722C10.4285 10.5659 10.7083 10.45 11 10.45C11.3125 10.45 11.6185 10.3612 11.8826 10.1941C12.1466 10.0269 12.3577 9.7882 12.4913 9.50574C12.625 9.22328 12.6757 8.90868 12.6376 8.59853C12.5994 8.28838 12.474 7.99544 12.2758 7.7538C12.0777 7.51216 11.815 7.33175 11.5183 7.23357C11.2217 7.13538 10.9032 7.12345 10.6001 7.19918C10.2969 7.2749 10.0215 7.43515 9.8058 7.6613C9.59015 7.88744 9.44315 8.17018 9.3819 8.4766L7.2237 8.0443C7.3575 7.37559 7.66646 6.75441 8.11901 6.24425C8.57156 5.73408 9.15147 5.35324 9.79945 5.14065C10.4474 4.92806 11.1402 4.89135 11.8071 5.03428C12.4739 5.1772 13.0908 5.49463 13.5947 5.95411C14.0986 6.41359 14.4715 6.99865 14.6752 7.64947C14.8789 8.30029 14.9062 8.99354 14.7542 9.65834C14.6021 10.3231 14.2763 10.9356 13.81 11.4333C13.3436 11.9309 12.7535 12.2957 12.1 12.4905Z" fill="#EBEBEB"/>
</svg>
