<svg width="67" height="40" viewBox="0 0 67 40" fill="none" xmlns="http://www.w3.org/2000/svg">
<g clip-path="url(#clip0)">
<path d="M32.3596 20.119V25.0656H30.8018V12.8497H34.9335C35.4267 12.8393 35.917 12.9274 36.3762 13.1089C36.8354 13.2905 37.2544 13.5618 37.6089 13.9072C37.9671 14.2317 38.2521 14.6297 38.4449 15.0744C38.6376 15.5191 38.7337 16.0002 38.7265 16.4853C38.7368 16.9731 38.6422 17.4573 38.4493 17.9048C38.2564 18.3524 37.9697 18.7526 37.6089 19.078C36.8865 19.772 35.9946 20.1187 34.9335 20.118H32.3596V20.119ZM32.3596 14.3537V18.618H34.9722C35.2586 18.6265 35.5436 18.5748 35.8091 18.466C36.0745 18.3573 36.3144 18.1939 36.5136 17.9864C36.7117 17.7923 36.8692 17.5603 36.9767 17.3039C37.0843 17.0475 37.1397 16.772 37.1397 16.4936C37.1397 16.2153 37.0843 15.9398 36.9767 15.6834C36.8692 15.427 36.7117 15.1949 36.5136 15.0009C36.3169 14.789 36.0778 14.6216 35.8121 14.5099C35.5463 14.3981 35.26 14.3445 34.9722 14.3527H32.3596V14.3537Z" fill="white"/>
<path d="M42.3165 16.4346C43.468 16.4346 44.3769 16.7445 45.0433 17.3644C45.7096 17.9843 46.0425 18.8343 46.0419 19.9143V25.0655H44.5517V23.9057H44.484C43.8389 24.8609 42.981 25.3385 41.9101 25.3385C40.9961 25.3385 40.2313 25.0655 39.6159 24.5197C39.3206 24.2692 39.0845 23.9554 38.9248 23.6013C38.7651 23.2472 38.6858 22.8617 38.6928 22.4728C38.6928 21.608 39.0173 20.9201 39.6662 20.4094C40.3152 19.8987 41.1815 19.6426 42.2652 19.6413C43.1903 19.6413 43.9521 19.8119 44.5508 20.1531V19.7944C44.5525 19.5293 44.4957 19.2671 44.3844 19.0269C44.2731 18.7866 44.1101 18.5743 43.9073 18.4054C43.4953 18.031 42.9584 17.8267 42.4036 17.8333C41.5334 17.8333 40.8448 18.203 40.3378 18.9425L38.9657 18.0721C39.7204 16.9804 40.8374 16.4346 42.3165 16.4346ZM40.301 22.507C40.2999 22.7067 40.3463 22.9038 40.4362 23.0818C40.526 23.2598 40.6569 23.4136 40.8177 23.5304C41.1622 23.8034 41.5899 23.948 42.0282 23.9398C42.6856 23.9387 43.3157 23.6751 43.7805 23.2068C44.2966 22.7175 44.5546 22.1434 44.5546 21.4845C44.0689 21.0946 43.3916 20.8997 42.5226 20.8997C41.8898 20.8997 41.3621 21.0534 40.9396 21.3607C40.5129 21.6726 40.301 22.0518 40.301 22.507Z" fill="white"/>
<path d="M54.5956 16.7075L49.3937 28.75H47.7855L49.7159 24.5363L46.2954 16.7075H47.9887L50.461 22.7117H50.4949L52.8994 16.7075H54.5956Z" fill="white"/>
<path d="M26.0644 19.0527C26.065 18.5745 26.0248 18.0971 25.9444 17.6257H19.3743V20.3286H23.1373C23.0603 20.7603 22.8973 21.1718 22.6582 21.5383C22.4191 21.9048 22.1087 22.2188 21.7459 22.4612V24.2157H23.9917C25.3067 22.9944 26.0644 21.1883 26.0644 19.0527Z" fill="#4285F4"/>
<path d="M19.3743 25.9108C21.2544 25.9108 22.8374 25.2889 23.9918 24.2168L21.746 22.4623C21.1209 22.8892 20.3158 23.1329 19.3743 23.1329C17.5572 23.1329 16.0148 21.8989 15.4632 20.2361H13.1497V22.0442C13.7295 23.2065 14.6187 24.1836 15.7178 24.8663C16.817 25.5491 18.083 25.9107 19.3743 25.9108Z" fill="#34A853"/>
<path d="M15.4631 20.236C15.1716 19.3647 15.1716 18.4211 15.4631 17.5498V15.7417H13.1496C12.6618 16.7195 12.4077 17.7986 12.4077 18.8929C12.4077 19.9872 12.6618 21.0663 13.1496 22.0441L15.4631 20.236Z" fill="#FBBC04"/>
<path d="M19.3743 14.6529C20.3679 14.6365 21.3279 15.0147 22.0469 15.7055L24.0353 13.7025C22.7745 12.5096 21.1041 11.8546 19.3743 11.875C18.083 11.875 16.817 12.2366 15.7178 12.9194C14.6187 13.6022 13.7295 14.5793 13.1497 15.7416L15.4632 17.5497C16.0148 15.8868 17.5572 14.6529 19.3743 14.6529Z" fill="#EA4335"/>
</g>
<defs>
<clipPath id="clip0">
<rect width="42.1852" height="16.875" fill="white" transform="translate(12.4075 11.875)"/>
</clipPath>
</defs>
</svg>
