<svg width="24" height="24" viewBox="0 0 24 24" fill="none" xmlns="http://www.w3.org/2000/svg">
<path d="M5.2499 19.5H18.7499C19.0349 19.5001 19.3093 19.6084 19.5176 19.803C19.7259 19.9976 19.8525 20.2639 19.8719 20.5483C19.8914 20.8327 19.8021 21.1138 19.6223 21.3349C19.4424 21.5561 19.1853 21.7006 18.9029 21.7395L18.7499 21.75H5.2499C4.96487 21.7499 4.69049 21.6416 4.48221 21.447C4.27394 21.2524 4.14729 20.9861 4.12786 20.7017C4.10843 20.4173 4.19767 20.1362 4.37755 19.9151C4.55743 19.6939 4.81453 19.5494 5.0969 19.5105L5.2499 19.5H18.7499H5.2499ZM11.8469 1.5105L11.9999 1.5C12.2718 1.50001 12.5344 1.59846 12.7393 1.77715C12.9442 1.95584 13.0774 2.20267 13.1144 2.472L13.1249 2.625V14.157L16.5074 10.776C16.6982 10.5853 16.9511 10.4695 17.2201 10.4497C17.4891 10.4298 17.7562 10.5073 17.9729 10.668L18.0989 10.776C18.2896 10.9668 18.4054 11.2197 18.4252 11.4887C18.4451 11.7577 18.3676 12.0248 18.2069 12.2415L18.0989 12.3675L12.7949 17.67C12.6044 17.8605 12.3519 17.9764 12.0832 17.9965C11.8146 18.0166 11.5476 17.9396 11.3309 17.7795L11.2049 17.67L5.9009 12.3675C5.69961 12.1668 5.58178 11.8973 5.5711 11.6132C5.56042 11.3291 5.65767 11.0515 5.84332 10.8362C6.02897 10.6209 6.28923 10.4839 6.57179 10.4527C6.85435 10.4215 7.13824 10.4984 7.3664 10.668L7.4924 10.776L10.8749 14.16V2.625C10.8749 2.35314 10.9734 2.09049 11.1521 1.8856C11.3307 1.68072 11.5776 1.54747 11.8469 1.5105L11.9999 1.5L11.8469 1.5105Z" fill="white"/>
</svg>
