<svg width="24" height="24" viewBox="0 0 24 24" fill="none" xmlns="http://www.w3.org/2000/svg">
<path d="M12 23C5.9247 23 1 18.0753 1 12C1 5.9247 5.9247 1 12 1C18.0753 1 23 5.9247 23 12C23 18.0753 18.0753 23 12 23ZM12 20.8C14.3339 20.8 16.5722 19.8729 18.2225 18.2225C19.8729 16.5722 20.8 14.3339 20.8 12C20.8 9.66609 19.8729 7.42778 18.2225 5.77746C16.5722 4.12714 14.3339 3.2 12 3.2C9.66609 3.2 7.42778 4.12714 5.77746 5.77746C4.12714 7.42778 3.2 9.66609 3.2 12C3.2 14.3339 4.12714 16.5722 5.77746 18.2225C7.42778 19.8729 9.66609 20.8 12 20.8ZM10.9 15.3H13.1V17.5H10.9V15.3ZM13.1 13.4905V14.2H10.9V12.55C10.9 12.2583 11.0159 11.9785 11.2222 11.7722C11.4285 11.5659 11.7083 11.45 12 11.45C12.3125 11.45 12.6185 11.3612 12.8826 11.1941C13.1466 11.0269 13.3577 10.7882 13.4913 10.5057C13.625 10.2233 13.6757 9.90868 13.6376 9.59853C13.5994 9.28838 13.474 8.99544 13.2758 8.7538C13.0777 8.51216 12.815 8.33175 12.5183 8.23357C12.2217 8.13538 11.9032 8.12345 11.6001 8.19918C11.2969 8.2749 11.0215 8.43515 10.8058 8.6613C10.5901 8.88744 10.4431 9.17018 10.3819 9.4766L8.2237 9.0443C8.3575 8.37559 8.66646 7.75441 9.11901 7.24425C9.57156 6.73408 10.1515 6.35324 10.7994 6.14065C11.4474 5.92806 12.1402 5.89135 12.8071 6.03428C13.4739 6.1772 14.0908 6.49463 14.5947 6.95411C15.0986 7.41359 15.4715 7.99865 15.6752 8.64947C15.8789 9.30029 15.9062 9.99354 15.7542 10.6583C15.6021 11.3231 15.2763 11.9356 14.81 12.4333C14.3436 12.9309 13.7535 13.2957 13.1 13.4905Z" fill="#A6A6A6"/>
</svg>
