<svg width="68" height="40" viewBox="0 0 68 40" fill="none" xmlns="http://www.w3.org/2000/svg">
<path d="M24.8035 31.0952V29.5987C24.8035 29.031 24.4408 28.6698 23.8709 28.6698C23.56 28.6698 23.2491 28.773 23.0419 29.0826C22.8864 28.8246 22.6274 28.6698 22.2647 28.6698C22.0056 28.6698 21.7466 28.7214 21.5911 29.031V28.7214H21.073V31.0952H21.5911V29.8051C21.5911 29.3923 21.7984 29.1858 22.1611 29.1858C22.5237 29.1858 22.6792 29.3923 22.6792 29.8051V31.1468H23.1973V29.8567C23.1973 29.4439 23.4564 29.2374 23.7672 29.2374C24.1299 29.2374 24.2854 29.4439 24.2854 29.8567V31.1984H24.8035V31.0952ZM32.5235 28.7214H31.6945V27.9989H31.1764V28.7214H30.7101V29.1858H31.1764V30.2696C31.1764 30.8372 31.3836 31.1468 32.0054 31.1468C32.2126 31.1468 32.4717 31.0952 32.6271 30.9404L32.4717 30.476C32.3163 30.5792 32.1608 30.6308 32.0054 30.6308C31.7463 30.6308 31.6427 30.476 31.6427 30.2179V29.1342H32.4717V28.7214H32.5235ZM36.9276 28.6698C36.6167 28.6698 36.4612 28.8246 36.3058 29.031V28.7214H35.7877V31.0952H36.3058V29.7535C36.3058 29.3406 36.4612 29.1342 36.8239 29.1342C36.9276 29.1342 37.0312 29.1342 37.1348 29.1858L37.2902 28.7214C37.1866 28.6698 37.0312 28.6698 36.9276 28.6698ZM30.2438 28.9278C29.9847 28.773 29.6738 28.6698 29.2593 28.6698C28.6376 28.6698 28.2749 28.9794 28.2749 29.4439C28.2749 29.8051 28.5858 30.0631 29.1039 30.1663L29.363 30.2179C29.622 30.2695 29.7775 30.3212 29.7775 30.476C29.7775 30.6824 29.5702 30.7856 29.2593 30.7856C28.8966 30.7856 28.6376 30.6824 28.4821 30.5276L28.2231 30.9404C28.4821 31.1468 28.8448 31.2501 29.2593 31.2501C29.9329 31.2501 30.3474 30.9404 30.3474 30.476C30.3474 30.0631 30.0365 29.8567 29.5184 29.7535L29.2593 29.7019C29.0521 29.6503 28.8448 29.6503 28.8448 29.4439C28.8448 29.289 29.0003 29.1858 29.3111 29.1858C29.622 29.1858 29.9329 29.289 30.0365 29.3923L30.2438 28.9278ZM44.1295 28.6698C43.8186 28.6698 43.6631 28.8246 43.5077 29.031V28.7214H42.9896V31.0952H43.5077V29.7535C43.5077 29.3406 43.6631 29.1342 44.0258 29.1342C44.1295 29.1342 44.2331 29.1342 44.3367 29.1858L44.4921 28.7214C44.3367 28.6698 44.2331 28.6698 44.1295 28.6698ZM37.4457 29.9083C37.4457 30.6308 37.9638 31.1468 38.6892 31.1468C39.0519 31.1468 39.3109 31.0436 39.5182 30.8888L39.2591 30.476C39.0519 30.6308 38.8446 30.6824 38.6374 30.6824C38.2229 30.6824 37.912 30.3728 37.912 29.9083C37.912 29.4439 38.2229 29.1342 38.6374 29.1342C38.8446 29.1342 39.0519 29.1858 39.2591 29.3406L39.5182 28.9278C39.2591 28.7214 39 28.6698 38.6892 28.6698C37.9638 28.6698 37.4457 29.1858 37.4457 29.9083ZM42.2642 29.9083V28.7214H41.7461V29.031C41.5907 28.8246 41.3316 28.6698 41.0207 28.6698C40.3472 28.6698 39.829 29.1858 39.829 29.9083C39.829 30.6308 40.3472 31.1468 41.0207 31.1468C41.3834 31.1468 41.5907 30.992 41.7461 30.7856V31.0952H42.2642V29.9083ZM40.3472 29.9083C40.3472 29.4955 40.6062 29.1342 41.0725 29.1342C41.487 29.1342 41.7979 29.4439 41.7979 29.9083C41.7979 30.3212 41.487 30.6824 41.0725 30.6824C40.658 30.6824 40.3472 30.3212 40.3472 29.9083ZM34.1297 28.6698C33.4561 28.6698 32.938 29.1858 32.938 29.9083C32.938 30.6824 33.4561 31.1468 34.1297 31.1468C34.4924 31.1468 34.8032 31.0436 35.1141 30.8372L34.8551 30.476C34.6478 30.6308 34.3887 30.734 34.1815 30.734C33.8706 30.734 33.5598 30.5792 33.4561 30.1663H35.2177C35.2177 30.1147 35.2177 30.0631 35.2177 29.9599C35.2696 29.1858 34.8033 28.6698 34.1297 28.6698ZM34.1297 29.1342C34.4406 29.1342 34.6996 29.3406 34.7514 29.7019H33.5079C33.5598 29.3406 33.767 29.1342 34.1297 29.1342ZM47.0828 29.9083V27.7925H46.5646V29.031C46.4092 28.8246 46.1501 28.6698 45.8393 28.6698C45.1657 28.6698 44.6476 29.1858 44.6476 29.9083C44.6476 30.6308 45.1657 31.1468 45.8393 31.1468C46.202 31.1468 46.4092 30.992 46.5646 30.7856V31.0952H47.0828V29.9083ZM45.1657 29.9083C45.1657 29.4955 45.4248 29.1342 45.8911 29.1342C46.3056 29.1342 46.6164 29.4439 46.6164 29.9083C46.6164 30.3212 46.3056 30.6824 45.8911 30.6824C45.4248 30.6824 45.1657 30.3212 45.1657 29.9083ZM27.705 29.9083V28.7214H27.1868V29.031C27.0314 28.8246 26.7723 28.6698 26.4615 28.6698C25.7879 28.6698 25.2698 29.1858 25.2698 29.9083C25.2698 30.6308 25.7879 31.1468 26.4615 31.1468C26.8242 31.1468 27.0314 30.992 27.1868 30.7856V31.0952H27.705V29.9083ZM25.7879 29.9083C25.7879 29.4955 26.047 29.1342 26.5133 29.1342C26.9278 29.1342 27.2387 29.4439 27.2387 29.9083C27.2387 30.3212 26.9278 30.6824 26.5133 30.6824C26.047 30.6824 25.7879 30.3212 25.7879 29.9083Z" fill="black"/>
<path d="M37.9118 10.7109H30.0881V24.6961H37.9118V10.7109Z" fill="#FF5F00"/>
<path d="M30.6064 17.678C30.6064 14.8397 31.9535 12.311 34.026 10.6596C32.5234 9.47272 30.6064 8.75024 28.4821 8.75024C23.5599 8.75024 19.5186 12.7239 19.5186 17.678C19.5186 22.5805 23.5081 26.6058 28.4821 26.6058C30.5546 26.6058 32.4716 25.8833 34.026 24.6964C31.9017 23.045 30.6064 20.5163 30.6064 17.678Z" fill="#EB001B"/>
<path d="M48.4813 17.6778C48.4813 22.5803 44.4918 26.6055 39.5178 26.6055C37.4453 26.6055 35.5282 25.8831 33.9739 24.6961C36.0464 23.0447 37.3935 20.5161 37.3935 17.6778C37.3935 14.8395 36.0464 12.3108 33.9739 10.6594C35.4764 9.47248 37.3935 8.75 39.5178 8.75C44.4918 8.80161 48.4813 12.7752 48.4813 17.6778Z" fill="#F79E1B"/>
</svg>
