<svg width="67" height="40" viewBox="0 0 67 40" fill="none" xmlns="http://www.w3.org/2000/svg">
<path d="M36.0116 15.1463L33.199 21.4993H32.9311V13.75H28.9131V26.875H32.3284C33.199 26.875 34.0025 26.3165 34.4043 25.4787L37.217 19.1257H37.4848V26.875H41.5028V13.75H38.0875C37.217 13.75 36.4134 14.3085 36.0116 15.1463Z" fill="#24A13E"/>
<path d="M21.0108 15.4953L19.3367 21.5692H19.0688L17.3946 15.4953C17.1268 14.4481 16.1893 13.75 15.1848 13.75H11.1667V26.875H15.1848V19.1257H15.4526L17.7295 26.875H20.6091L22.8859 19.1257H23.1538V26.875H27.1718V13.75H23.1538C22.1493 13.75 21.2787 14.4481 21.0108 15.4953Z" fill="#24A13E"/>
<path d="M43.2437 19.7539V26.8749H47.2617V22.6861H51.5475C53.4226 22.6861 55.0298 21.4294 55.5655 19.6841H43.2437V19.7539Z" fill="#24A13E"/>
<path d="M51.5474 13.75H42.6409C43.1766 16.8218 45.7213 19.1257 48.8688 19.1257H55.7664C55.8333 18.8464 55.8333 18.5672 55.8333 18.2181C55.8333 15.7746 53.8913 13.75 51.5474 13.75Z" fill="url(#paint0_linear)"/>
<defs>
<linearGradient id="paint0_linear" x1="42.6642" y1="16.4513" x2="55.8476" y2="16.4513" gradientUnits="userSpaceOnUse">
<stop stop-color="#00A2E0"/>
<stop offset="0.3093" stop-color="#0099D9"/>
<stop offset="0.812" stop-color="#0081C6"/>
<stop offset="1" stop-color="#0076BE"/>
</linearGradient>
</defs>
</svg>
