<svg width="24" height="24" viewBox="0 0 24 24" fill="none" xmlns="http://www.w3.org/2000/svg">
<circle opacity="0.6" cx="12" cy="12" r="12" fill="white"/>
<path d="M12 7.75C10.9688 7.75 10.125 6.90625 10.125 5.875C10.125 4.82031 10.9688 4 12 4C13.0312 4 13.875 4.82031 13.875 5.875C13.875 6.90625 13.0312 7.75 12 7.75ZM4.52344 6.97656C5.34375 6.97656 6 7.65625 6 8.47656C6 9.32031 5.34375 9.97656 4.52344 9.97656C3.67969 9.97656 3 9.32031 3 8.47656C3 7.65625 3.67969 6.97656 4.52344 6.97656ZM19.5234 6.97656C20.3438 6.97656 21 7.65625 21 8.47656C21 9.32031 20.3438 9.97656 19.5234 9.97656C18.6797 9.97656 18 9.32031 18 8.47656C18 7.65625 18.6797 6.97656 19.5234 6.97656ZM6.16406 17.3359L4.92188 10.5391C5.29688 10.4688 5.64844 10.2578 5.92969 10.0234C6.70312 10.7266 7.6875 11.4062 8.625 11.4062C9.75 11.4062 10.6641 9.67188 11.2969 8.21875C11.5078 8.28906 11.7656 8.35938 12 8.35938C12.2344 8.35938 12.4922 8.28906 12.7031 8.21875C13.3359 9.67188 14.25 11.4062 15.375 11.4062C16.3125 11.4062 17.2969 10.7266 18.0703 10.0234C18.3516 10.2578 18.7031 10.4688 19.0781 10.5391L17.8359 17.3359H6.16406ZM5.90625 17.9219H18.0938V19.0703H5.90625V17.9219Z" fill="#E41E4E"/>
</svg>
