<svg width="40" height="40" viewBox="0 0 40 40" fill="none" xmlns="http://www.w3.org/2000/svg">
<path d="M7.42084 20.0798L12.9386 22.1436L15.0895 29.0854C15.183 29.5545 15.7442 29.6483 16.1182 29.3668L19.2044 26.834C19.485 26.5526 19.9526 26.5526 20.3267 26.834L25.8443 30.8678C26.2184 31.1492 26.7796 30.9616 26.8731 30.4925L30.988 10.7928C31.0815 10.3238 30.6139 9.85474 30.1463 10.0424L7.42084 18.8603C6.85972 19.0479 6.85972 19.8922 7.42084 20.0798ZM14.809 21.1117L25.6573 14.4513C25.8443 14.3575 26.0314 14.639 25.8443 14.7328L16.9599 23.0817C16.6794 23.3631 16.3988 23.7384 16.3988 24.2074L16.1182 26.4588C16.1182 26.7402 15.6506 26.834 15.5571 26.4588L14.4349 22.3312C14.1543 21.8622 14.3414 21.2993 14.809 21.1117Z" fill="white"/>
</svg>
