<svg width="67" height="40" viewBox="0 0 67 40" fill="none" xmlns="http://www.w3.org/2000/svg">
<path d="M52.1111 8.125H14.8889V31.875H52.1111V8.125Z" fill="white"/>
<path d="M51.4925 27.9941H15.5076V31.2539H51.4925V27.9941Z" fill="#F7B600"/>
<path d="M51.4925 8.74585H15.5076V12.0057H51.4925V8.74585Z" fill="#1A1F71"/>
<path d="M29.9428 15.5761L26.2309 24.4759H23.8079L22.0035 17.3871C21.9003 16.9732 21.7972 16.7662 21.4364 16.611C20.8693 16.3005 19.9928 16.0418 19.168 15.8348L19.2195 15.5761H23.1377C23.6532 15.5761 24.0656 15.8866 24.2203 16.5075L25.1998 21.6818L27.5713 15.6279H29.9428V15.5761ZM39.4288 21.5266C39.4288 19.1981 36.1809 19.0429 36.2325 18.008C36.2325 17.6976 36.5418 17.3354 37.212 17.2836C37.5213 17.2319 38.4493 17.2319 39.4804 17.6976L39.8928 15.8348C39.3257 15.6279 38.6555 15.4209 37.7275 15.4209C35.4591 15.4209 33.861 16.611 33.861 18.3702C33.861 19.6638 34.9951 20.3882 35.8716 20.8022C36.748 21.2161 37.0573 21.5266 37.0573 21.8888C37.0573 22.5097 36.3356 22.7684 35.6654 22.7684C34.5312 22.7684 33.8609 22.4579 33.2939 22.1992L32.8814 24.1654C33.397 24.4242 34.4281 24.6311 35.4076 24.6311C37.8306 24.5794 39.4288 23.3893 39.4288 21.5266ZM45.4091 24.4759H47.5229L45.6669 15.5761H43.7078C43.2438 15.5761 42.883 15.8348 42.7283 16.2488L39.2742 24.4759H41.6972L42.1612 23.1306H45.0998L45.4091 24.4759ZM42.8314 21.3196L44.0172 17.9563L44.6874 21.3196H42.8314ZM33.1907 15.5761L31.2832 24.4759H28.9633L30.8708 15.5761H33.1907Z" fill="#1A1F71"/>
</svg>
