<svg width="40" height="40" viewBox="0 0 40 40" fill="none" xmlns="http://www.w3.org/2000/svg">
<path d="M31.7678 25.6644C31.7678 25.5753 31.6683 25.5753 31.6683 25.4863C31.2704 24.774 30.3752 23.8836 29.1816 22.9041C28.5848 22.4589 28.2864 22.1027 28.0874 21.9247C27.789 21.5685 27.789 21.3014 27.8885 20.9452C27.988 20.6781 28.3858 20.2329 29.0821 19.4315C29.48 18.9863 29.6789 18.7192 29.9773 18.4521C31.4694 16.6712 32.1656 15.5137 31.9667 14.9794L31.8673 14.8904C31.7678 14.8014 31.6683 14.7123 31.4694 14.7123C31.2704 14.6233 30.972 14.6233 30.6736 14.7123H26.8938C26.7943 14.7123 26.7943 14.7123 26.5954 14.7123C26.4959 14.7123 26.3965 14.7123 26.3965 14.7123H26.297H26.1975L26.098 14.8014C25.9986 14.8904 25.9986 14.8904 25.9986 14.9794C25.6007 15.9589 25.1034 16.7603 24.606 17.6507C24.3076 18.0959 24.0092 18.5411 23.7108 18.8973C23.4124 19.2534 23.2134 19.5205 23.0145 19.6986C22.8156 19.8767 22.6166 19.9658 22.5172 20.1438C22.4177 20.2329 22.2188 20.3219 22.2188 20.2329C22.1193 20.2329 22.0198 20.2329 22.0198 20.1438C21.9203 20.0548 21.8209 19.9657 21.7214 19.8767C21.6219 19.7877 21.6219 19.6096 21.5225 19.4315C21.5225 19.2534 21.5225 19.0753 21.5225 18.9863C21.5225 18.8973 21.5225 18.6301 21.5225 18.4521C21.5225 18.1849 21.5225 18.0068 21.5225 17.9178C21.5225 17.6507 21.5225 17.2945 21.5225 16.9384C21.5225 16.5822 21.5225 16.3151 21.5225 16.137C21.5225 15.9589 21.5225 15.6918 21.5225 15.5137C21.5225 15.2466 21.5225 15.0685 21.5225 14.9794C21.5225 14.8904 21.423 14.7123 21.423 14.6233C21.3235 14.5342 21.2241 14.4452 21.1246 14.3562C21.0251 14.2671 20.8262 14.2671 20.7267 14.1781C20.2294 14.089 19.6326 14 18.9363 14C17.3448 14 16.2506 14.089 15.8527 14.2671C15.6538 14.3562 15.4549 14.4452 15.3554 14.6233C15.1565 14.8014 15.1565 14.8904 15.2559 14.8904C15.7533 14.9795 16.1512 15.1575 16.3501 15.4247L16.4496 15.6027C16.549 15.6918 16.549 15.8699 16.6485 16.137C16.748 16.4041 16.748 16.6712 16.748 17.0274C16.748 17.5616 16.748 18.0959 16.748 18.4521C16.748 18.8973 16.6485 19.1644 16.6485 19.4315C16.6485 19.6986 16.549 19.8767 16.4496 19.9658C16.3501 20.1438 16.3501 20.2329 16.2506 20.2329C16.2506 20.2329 16.2506 20.3219 16.1511 20.3219C16.0517 20.3219 15.9522 20.411 15.7533 20.411C15.6538 20.411 15.4549 20.3219 15.3554 20.2329C15.1565 20.1438 14.9575 19.9658 14.8581 19.7877C14.6591 19.6096 14.4602 19.3425 14.2612 18.9863C14.0623 18.6301 13.7639 18.274 13.5649 17.7397L13.366 17.3836C13.2666 17.2055 13.0676 16.8493 12.8687 16.4041C12.6697 15.9589 12.4708 15.6027 12.2719 15.1575C12.1724 14.9795 12.0729 14.8904 11.9735 14.8014H11.874C11.874 14.8014 11.7745 14.7123 11.675 14.7123C11.5756 14.7123 11.4761 14.6233 11.3766 14.6233H7.79575C7.39788 14.6233 7.19894 14.7123 7.09948 14.8014L7 14.8904C7 14.8904 7 14.9794 7 15.0685C7 15.1575 7.00001 15.2466 7.09948 15.4247C7.59682 16.4931 8.19363 17.5616 8.79044 18.6301C9.38726 19.6096 9.98408 20.5 10.382 21.1233C10.8793 21.7466 11.2772 22.3699 11.7745 22.9041C12.2719 23.4384 12.5703 23.7945 12.6697 23.9726C12.8687 24.1507 12.9681 24.2397 13.0676 24.3288L13.366 24.5959C13.565 24.774 13.8634 25.0411 14.2612 25.3082C14.6591 25.5753 15.1565 25.8425 15.6538 26.1096C16.1511 26.3767 16.748 26.5548 17.3448 26.7329C18.0411 26.911 18.6379 27 19.2347 26.911H20.7267C21.0251 26.911 21.2241 26.8219 21.423 26.6438L21.5225 26.5548C21.5225 26.4658 21.6219 26.4658 21.6219 26.3767C21.6219 26.2877 21.6219 26.1986 21.6219 26.0206C21.6219 25.6644 21.6219 25.3973 21.7214 25.1301C21.8209 24.863 21.8209 24.6849 21.9204 24.5069C22.0198 24.3288 22.1193 24.2397 22.2188 24.1507C22.3182 24.0616 22.4177 23.9726 22.4177 23.9726H22.5172C22.7161 23.8836 23.0145 23.9726 23.2134 24.1507C23.5119 24.3288 23.8102 24.5959 24.0092 24.863C24.2081 25.1301 24.5066 25.3973 24.9044 25.7534C25.3023 26.1096 25.6007 26.3767 25.7996 26.4658L26.098 26.6438C26.297 26.7329 26.4959 26.8219 26.7943 26.911C27.0927 27 27.2917 27 27.4906 27L30.8726 26.911C31.171 26.911 31.4694 26.8219 31.6683 26.7329C31.8672 26.6438 31.9667 26.5548 31.9667 26.3767C31.9667 26.2877 31.9667 26.1096 31.9667 26.0206C31.7678 25.8425 31.7678 25.7534 31.7678 25.6644Z" fill="white"/>
</svg>
