<svg width="22" height="24" viewBox="0 0 22 24" fill="none" xmlns="http://www.w3.org/2000/svg">
<path d="M5.75 7.625V5.875C5.75 4.48261 6.30312 3.14726 7.28769 2.16269C8.27226 1.17812 9.60761 0.625 11 0.625V0.625C12.3924 0.625 13.7277 1.17812 14.7123 2.16269C15.6969 3.14726 16.25 4.48261 16.25 5.875V7.625M1.375 7.625C1.14294 7.625 0.920376 7.71719 0.756282 7.88128C0.592187 8.04538 0.5 8.26794 0.5 8.5V20.3125C0.5 21.9662 1.90875 23.375 3.5625 23.375H18.4375C20.0912 23.375 21.5 22.0346 21.5 20.3809V8.5C21.5 8.26794 21.4078 8.04538 21.2437 7.88128C21.0796 7.71719 20.8571 7.625 20.625 7.625H1.375Z" stroke="#1F1F1F" stroke-linecap="round" stroke-linejoin="round"/>
</svg>
