<svg width="105" height="18" viewBox="0 0 105 18" fill="none" xmlns="http://www.w3.org/2000/svg">
<path d="M11.333 9.00023H11.6197C11.6197 8.58235 11.333 4.51942 20.9781 4.51942H32.4603V0.0375977H20.9792C11.333 0.0375977 11.333 9.00023 11.333 9.00023Z" fill="black"/>
<path d="M20.9792 13.4823C11.3341 13.4823 11.6208 9.41935 11.6208 9.00146H11.3341C11.3341 9.00146 11.3341 17.9641 20.9792 17.9641H32.4603V13.4823H20.9792Z" fill="black"/>
<path d="M104.372 0.034668H82.709V4.51649H91.1297V9.00238H91.1308C91.1308 17.965 86.7585 17.6986 86.3088 17.6986V17.965C86.3088 17.965 95.9528 17.965 95.9528 9.00238V4.51649H104.374V0.034668H104.372Z" fill="black"/>
<path d="M66.2252 13.4842C69.0602 12.8924 73.6251 10.9891 73.6634 4.86621H73.6645H73.6656V0.0356445H68.8425V4.78894C68.8425 12.988 65.1847 13.4638 64.2163 13.4852H61.1428V17.967H82.5131V13.4852H66.2252V13.4842Z" fill="black"/>
<path d="M41.4248 9.00023V0.0375977H36.6017V9.00023C36.6017 17.9629 46.2468 17.9629 46.2468 17.9629V17.6965C45.7971 17.6965 41.4248 17.9629 41.4248 9.00023Z" fill="black"/>
<path d="M58.7489 0.0375977H53.9258V9.00023C53.9258 17.9629 49.5535 17.6965 49.1038 17.6965V17.9629C49.1038 17.9629 58.7489 17.9629 58.7489 9.00023V0.0375977Z" fill="black"/>
<path d="M46.2468 17.6968V17.9632H49.1037V17.6968H46.2468Z" fill="black"/>
<path d="M3.92327 16.4542H0.674683V17.9631H3.92327C7.17186 17.9631 7.17186 14.9443 7.17186 14.9443H7.07558C7.07448 15.0857 7.17077 16.4542 3.92327 16.4542Z" fill="black"/>
<path d="M3.92218 11.0327H0.674683V12.5416H3.92327C7.17077 12.5416 7.07448 13.9101 7.07448 14.0504H7.17077C7.17077 14.0504 7.17077 11.0327 3.92218 11.0327Z" fill="black"/>
<path d="M7.07446 14.0508V14.9455H7.17214V14.0508H7.07446Z" fill="black"/>
<path d="M3.92327 4.78282H7.17186V3.27295H3.8806V3.27397C0.675777 3.30142 0.674683 6.29167 0.674683 6.29167V7.80155V7.81171V9.31142H7.17077V7.80155H0.77097V6.29167H0.71845H0.77097C0.77097 6.15136 0.673589 4.78282 3.92327 4.78282Z" fill="black"/>
<path d="M5.89502 1.58214H7.17192V0.0722656H6.40381L5.89502 1.58214Z" fill="black"/>
<path d="M3.88278 0.072306V0.0733222C0.674678 0.0987409 0.673584 3.09103 0.673584 3.09103H0.769871C0.769871 2.95072 0.673583 1.58116 3.92217 1.58116H4.83143L5.35554 0.0712891H3.88278V0.072306Z" fill="black"/>
</svg>
