<svg class="logo" id="Слой_1" space="preserve" style="enable-background:new 0 0 1263.7 355.3;" version="1.1" viewBox="0 0 1263.7 355.3" x="0px" xmlns:xlink="http://www.w3.org/1999/xlink" xmlns="http://www.w3.org/2000/svg" y="0px">
<style>
  g path {
    stroke: black;
    fill: black;
  }
</style>
<g>
<g>
<path d="M176.8,88.9c-88.3,0-88.3,88.3-88.3,88.3l2.6,0c0-4.1-2.6-44.1,85.6-44.1h156.3V88.9H176.8z"></path>
<path d="M176.8,221.3c-88.3,0-85.6-40-85.6-44.1l-2.6,0c0,0,0,88.3,88.3,88.3v0h156.3v-44.1L176.8,221.3L176.8,221.3z"></path>
</g>
<path d="M1075.7,133.1h100V89H931.1v44.1h100.5v44.1h0c0,88.3,88.3,88.3,88.3,88.3l0-2.6c-4.1,0-44.1,2.6-44.1-85.6h0V133.1z"></path>
<g>
<path d="M421.4,177.2V88.9h-44.1v88.3c0,88.3,88.3,88.3,88.3,88.3l0-2.6C461.4,262.8,421.4,265.4,421.4,177.2z"></path>
<path d="M642,177.2L642,177.2l0-88.3h-44.1v88.3h0c0,88.3-40,85.6-44.1,85.6h-88.3v2.6h88.3l0,0C553.8,265.4,642,265.4,642,177.2z
      "></path>
</g>
<path d="M763.4,221.4c26-6,67.3-25.1,67.3-85.6V88.8h-44.1v46.9c0,75-28.8,84.4-40,85.6h-60.5v44.2h244.6v-44.2H763.4z"></path>
</g>
</svg>